<?xml version="1.0" encoding="utf-8"?>
<!-- Generator: Adobe Illustrator 23.1.0, SVG Export Plug-In . SVG Version: 6.00 Build 0)  -->
<svg version="1.1" id="Layer_1" xmlns="http://www.w3.org/2000/svg" xmlns:xlink="http://www.w3.org/1999/xlink" x="0px" y="0px"
	 viewBox="0 0 420 420" style="enable-background:new 0 0 420 420;" xml:space="preserve">
<style type="text/css">
	.st0{opacity:0.17;fill:#A3A3A3;enable-background:new    ;}
	.st1{fill:#B87741;}
	.st2{opacity:0.68;fill:#8D552E;enable-background:new    ;}
	.st3{fill:#AF6344;}
	.st4{fill:#F8A466;}
	.st5{fill:#CAD8DF;}
	.st6{fill:#EAEEF1;}
	.st7{fill:#AFC0C8;}
	.st8{fill:#043855;}
	.st9{opacity:0.45;fill:#858C91;enable-background:new    ;}
	.st10{fill:#043F5E;}
	.st11{opacity:0.78;fill:#022E49;enable-background:new    ;}
	.st12{opacity:0.6;fill:#BD724B;enable-background:new    ;}
	.st13{opacity:0.13;fill:#F48F9B;enable-background:new    ;}
	.st14{fill:#FF5336;}
	.st15{fill:#EFF1F4;}
</style>
<g>
	<path class="st0" d="M210,414c114.9,0,208-3.9,208-8.8c0-4.8-93.1-8.8-208-8.8c-114.9,0-208,3.9-208,8.8C2,410.1,95.1,414,210,414z
		"/>
	<path class="st1" d="M221.5,316.4l-0.2-131.1l-26.7-1l0.2,132.1L221.5,316.4z"/>
	<path class="st2" d="M221.2,191.5l-26.7-0.3v-6.9l26.7,1V191.5z"/>
	<path class="st2" d="M221.3,254.3l-26.5,0l0,8.1l26.5,0L221.3,254.3z"/>
	<path class="st3" d="M232.8,261.3l-21.1,1.3l-7.8,7.4l-7,31.8l19.3,17.1l15.3-2.4l-0.3-10.8l6.6-2.4l-3.9-41.8H232.8z"/>
	<path class="st4" d="M224.7,261.7l-1,12.6c0,0,10.4-1,12.8-1.4c2.3-0.4,2.4-1.7,2.4-2.6c0-0.5-0.1-5.9-0.1-5.9s-0.2-2.6-3-3
		C233.5,261,224.7,261.7,224.7,261.7z"/>
	<path class="st4" d="M223.7,275.9l-0.7,12.7l14.1-1.8c0,0,2.4-0.6,2.8-2.7c0.3-1.6-0.3-7.1-0.3-7.1s0-2.8-5-2.3
		C229.7,275.1,223.7,275.9,223.7,275.9z"/>
	<path class="st4" d="M229.3,289.3l-13.7,1.8c0,0-4.3,0.7-5.2,3.2c-1.5,4,0.5,8.5,6,8.6c5.5,0.1,21.3-2,21.3-2s1.3,0,2.3-1
		c0.7-0.6,1-1.5,1-2.5l-0.4-6c0,0-0.6-3.3-3.7-3.1L229.3,289.3z"/>
	<path class="st4" d="M230.3,303.4l-10.2,1.2c0,0-4.3,0.3-5.2,2.9c-1.4,3.8,0.3,8.6,5.6,8.7c5,0.1,16.2-1.7,17.6-1.9
		c0.1,0,0.1,0,0.2,0c0,0,0.1,0,0.1,0c1.8-0.2,3.1-1.9,3-3.7l-0.3-4.3c0-0.6-0.2-1.2-0.6-1.7c-0.4-0.6-1-1.2-2-1.6
		c-0.4-0.1-0.8-0.1-1.3-0.1L230.3,303.4z"/>
	<path class="st4" d="M221.1,317.5c0,0-5.2,0.2-7-3.6c-2.9-6.1,1.9-9.6,1.9-9.6s-3.8,0.1-5.6-2.4c-2.1-3-2-6-1.2-8.1
		c1.2-3,4.4-3.3,4.4-3.3c-4-0.8-5.7-7.1-5.7-7.1c-2.3,10.9-8,17.8-9.5,19c10.6-14.2,8.3-30.6,8.3-31.8c0-1.2,0.6-2.3,0.6-2.3
		c-0.1,0.4,0.4,9.1,0.4,9.1c2.3,17,13.7,11.8,13.7,11.8c0.1-12.7,1.9-25.1,1.8-28c-0.2-3-1.5-3.5-2.9-3.8
		c-1.7-0.3-24.4-0.4-25.6,0.1c-1.2,0.5-8.7,3.8-17.2,9.9c-7.9,5.6-11.9,9.5-14.3,12.3c-0.8,0.9-13.5,15.8-20.6,29.9l-18,39.8
		c28-9.7,35.9,13.2,40.9,11.4c0.4-0.1,14.9-35,15-34.9c-1.4-2.2-2.4-5.2-2.4-5.2c1.4,3.1,3.7,4.9,3.8,4.9c4.2,2.3,15,0.2,18.6-0.7
		c1.4-0.3,8.1-1.9,10.1-2.6c5.2-1.7,7.1-2.1,12.9-3.3c7.4-1.5,8.1-2.6,8.1-2.6L221.1,317.5z"/>
	<path class="st3" d="M180.4,325.8l1.5-0.3c0,0-4.2-4.9-4.1-8.2C177.8,317.4,176.6,319.8,180.4,325.8z"/>
	<path class="st5" d="M181.9,329.8l-47.7-21.5l-5.3,11.6l47.7,21.5L181.9,329.8z"/>
	<path class="st6" d="M167,323.1l-32.9-14.8l-5.3,11.6l32.9,14.8L167,323.1z"/>
	<path class="st7" d="M171.1,332.5c-0.7,1.5-2.4,2.1-3.8,1.5c-1.5-0.7-2.1-2.4-1.5-3.8c0.7-1.5,2.4-2.1,3.8-1.5
		C171.1,329.3,171.8,331,171.1,332.5z"/>
	<path class="st8" d="M155.7,406l25.9-62.3l-58.2-26.3l-39,88.5H155.7z"/>
	<path class="st9" d="M177.5,339.5l-47.7-21.5l-0.9,2l47.7,21.5L177.5,339.5z"/>
	<path class="st10" d="M140.3,406l25.4-60.2c1.9-4.2,0-9.2-4.2-11.1l-38.1-17.2L83.6,406H140.3z"/>
	<path class="st11" d="M162.5,344.4c-0.8,1.8-2.9,2.5-4.6,1.8c-1.8-0.8-2.5-2.9-1.8-4.6c0.8-1.7,2.9-2.5,4.6-1.7
		C162.5,340.6,163.3,342.7,162.5,344.4z"/>
	<path class="st11" d="M158.2,354c-0.8,1.8-2.9,2.5-4.6,1.8c-1.8-0.8-2.5-2.9-1.8-4.6c0.8-1.8,2.9-2.5,4.6-1.8
		C158.2,350.2,159,352.3,158.2,354z"/>
	<path class="st12" d="M179.2,328.6l-37.6-17l0.9-2l37.7,17L179.2,328.6z"/>
	<path class="st1" d="M198.4,302.3l0.1,59.2l22.8,0.5l-0.2-44.4c0,0-6.5,0.2-7.6-5.2c-1.1-5.4,2.5-8.1,2.5-8.1s-5.8,0.6-7.1-5.4
		c-1.3-6,2.7-8.2,4.7-8.5c0,0-3.3,0-5.7-7.1c0,0-3.8,14.2-8.6,17.6"/>
	<path class="st13" d="M93.8,406l38.7-84.5l-9-4.1L83.6,406H93.8z"/>
	<path class="st14" d="M358.2,9L62.8,6L61,184.2l295.4,3L358.2,9z"/>
	<path class="st15" d="M134.3,134.4v-14.6H96.9v-16.4c1.1-2,2.6-4.5,4.4-7.4c1.9-3,4.2-6.5,6.7-10.3l18.2-27.9h31.2v44.5h10.3v17.5
		h-10.3v14.6H134.3z M116.8,102.3h17.8V82.7c0-1.2,0-2.4,0-3.8c0.1-1.4,0.2-2.8,0.2-4.3h-0.2c-0.7,1.3-1.4,2.6-2.2,3.9
		c-0.7,1.3-1.4,2.6-2.2,3.7l-9.3,14.3c-0.6,1-1.3,2-2,2.9C118.3,100.3,117.6,101.3,116.8,102.3z"/>
	<path class="st15" d="M207.8,135.6c-11.6,0-20.2-3.3-25.8-9.9c-5.5-6.6-8.2-16.4-8.2-29.6s2.7-23,8.2-29.6
		c5.6-6.6,14.2-9.9,25.8-9.9c11.6,0,20.2,3.3,25.7,9.9c5.6,6.6,8.4,16.4,8.4,29.6s-2.8,23-8.4,29.6
		C228,132.3,219.4,135.6,207.8,135.6z M207.8,115.3c2,0,3.6-0.5,4.6-1.6c1.1-1.1,1.8-3,2.2-5.8c0.5-2.8,0.7-6.7,0.7-11.7
		s-0.2-8.9-0.7-11.7c-0.4-2.8-1.1-4.7-2.2-5.8c-1.1-1.1-2.6-1.6-4.6-1.6c-1.9,0-3.5,0.5-4.6,1.6c-1.1,1.1-1.9,3-2.3,5.8
		c-0.4,2.8-0.6,6.7-0.6,11.7s0.2,8.9,0.6,11.7c0.5,2.8,1.2,4.7,2.3,5.8C204.4,114.7,205.9,115.3,207.8,115.3z"/>
	<path class="st15" d="M288.4,134.4v-14.6H251v-16.4c1.1-2,2.6-4.5,4.4-7.4c1.9-3,4.2-6.5,6.7-10.3l18.2-27.9h31.2v44.5H322v17.5
		h-10.3v14.6H288.4z M271,102.3h17.8V82.7c0-1.2,0-2.4,0-3.8c0.1-1.4,0.2-2.8,0.2-4.3h-0.2c-0.7,1.3-1.4,2.6-2.2,3.9
		c-0.7,1.3-1.4,2.6-2.2,3.7l-9.3,14.3c-0.6,1-1.3,2-2,2.9C272.5,100.3,271.8,101.3,271,102.3z"/>
</g>
</svg>
