<?xml version="1.0" encoding="utf-8"?>
<!-- Generator: Adobe Illustrator 23.1.0, SVG Export Plug-In . SVG Version: 6.00 Build 0)  -->
<svg version="1.1" id="Layer_1" xmlns="http://www.w3.org/2000/svg" xmlns:xlink="http://www.w3.org/1999/xlink" x="0px" y="0px"
	 viewBox="0 0 1566 980" style="enable-background:new 0 0 1566 980;" xml:space="preserve">
<style type="text/css">
	.st0{fill:#EFF1F4;}
	.st1{fill:#2550D1;}
</style>
<path class="st0" d="M1402.9,653.3c0-90.2,73-163.3,163.1-163.3h-163.1V653.3z"/>
<path class="st0" d="M1402.9,326.7H1566V490h-163.1V326.7z M1402.9,163.3v163.3H1566V163.3H1402.9z M1076.6,490v163.3h163.1
	C1149.6,653.3,1076.6,580.2,1076.6,490z"/>
<path class="st0" d="M1402.8,653.3V490h-163.1C1239.7,580.2,1312.7,653.3,1402.8,653.3z"/>
<path class="st0" d="M1239.7,326.7V490h163.1C1312.7,490,1239.7,416.9,1239.7,326.7z"/>
<path class="st0" d="M995,571.7c45,0,81.6-36.7,81.6-81.7H913.6h0C913.6,535.1,950,571.7,995,571.7z"/>
<path class="st1" d="M1402.9,0v163.3H1566C1475.9,163.3,1402.9,90.2,1402.9,0z"/>
<path class="st0" d="M1402.9,0c0,90.2,73,163.3,163.1,163.3V0H1402.9z"/>
<path class="st0" d="M831.9,408.3c0-45,36.3-81.4,81.4-81.5v0H750.3V490h163.1v0C868.4,489.9,831.9,453.3,831.9,408.3z"/>
<path class="st1" d="M1402.8,326.7V490c-90.1,0-163.1-73.1-163.1-163.3H1402.8z M1076.6,326.5L1076.6,326.5
	c0.1-45,36.7-81.5,81.6-81.5c45,0,81.3,36.5,81.4,81.5h0V163.3h-163.1V326.5z"/>
<path class="st0" d="M1076.6,326.7h163.1c0-0.1,0-0.1,0-0.2h-163.1C1076.6,326.6,1076.6,326.7,1076.6,326.7z"/>
<path class="st0" d="M1158.3,245c-45,0-81.5,36.5-81.6,81.5h163.1C1239.6,281.5,1203.2,245,1158.3,245z"/>
<path class="st0" d="M1239.7,816.5V653.3h-163.1C1076.6,743.6,1149.6,816.7,1239.7,816.5z"/>
<path class="st0" d="M913.6,653.3v158.1c2.8-42.6,38.2-76.4,81.4-76.4c45,0,81.5,36.5,81.6,81.5h0V653.3H913.6z"/>
<path class="st0" d="M913.6,811.4c-0.1,1.8-0.2,3.6-0.2,5.4h0h0.2h163.1c0-0.1,0-0.1,0-0.2H913.6V811.4z"/>
<path class="st0" d="M995,735c-43.2,0-78.7,33.8-81.4,76.4v5.2h163.1C1076.5,771.5,1040,735,995,735z"/>
<path class="st0" d="M1402.8,653.3h-163.1V980H1566c-90,0-163.1-73.1-163.1-163.3s73-163.5,163.1-163.5h-163.1H1402.8z"/>
<path class="st1" d="M1076.6,490h163.1v163.3C1149.6,653.3,1076.6,580.2,1076.6,490z M995,571.7c-45,0-81.4-36.7-81.4-81.7v163.3
	h163.1V490C1076.6,535.1,1040,571.7,995,571.7z M831.9,408.3c0,45,36.5,81.6,81.4,81.7V326.7C868.2,326.8,831.9,363.3,831.9,408.3z
	 M1402.9,653.3H1566V490C1475.9,490,1402.9,563.1,1402.9,653.3z M1239.7,490v163.3h163.1C1312.7,653.3,1239.7,580.2,1239.7,490z
	 M1402.9,816.7c0,90.2,73,163.3,163.1,163.3V653.3C1476,653.3,1402.9,726.6,1402.9,816.7z"/>
<path class="st0" d="M1158.3,898.3c-45,0-81.6,36.7-81.6,81.7h163.1C1239.7,934.9,1203.3,898.3,1158.3,898.3z"/>
<path class="st1" d="M1239.7,816.7h-163.1V653.5C1076.6,743.8,1149.6,816.9,1239.7,816.7z M913.6,816.7c90,0,163.1,73.1,163.1,163.3
	c0-45.1,36.6-81.7,81.6-81.7c45,0,81.4,36.7,81.4,81.7V816.7h-163.1H913.6z"/>
<path class="st0" d="M913.6,816.7V980h163.1C1076.6,889.8,1003.6,816.7,913.6,816.7z"/>
<path class="st0" d="M750.3,816.7V980h163.1C823.3,980,750.3,906.9,750.3,816.7z"/>
<path class="st0" d="M750.3,816.7c0,90.2,73,163.3,163.1,163.3V816.7h0H750.3z"/>
<path class="st0" d="M668.9,898.3c0,45.3-36.6,81.7-81.6,81.7h163.1V816.7H592.6C635.1,819.5,668.9,855,668.9,898.3z"/>
<path class="st0" d="M587.3,816.5v0.2h5.4C590.8,816.6,589.1,816.5,587.3,816.5z"/>
<path class="st0" d="M668.9,898.3c0-43.3-33.7-78.8-76.3-81.5h-5.4V980C632.3,980,668.9,943.5,668.9,898.3z"/>
</svg>
