<?xml version="1.0" encoding="utf-8"?>
<!-- Generator: Adobe Illustrator 23.1.0, SVG Export Plug-In . SVG Version: 6.00 Build 0)  -->
<svg version="1.1" id="Layer_1" xmlns="http://www.w3.org/2000/svg" xmlns:xlink="http://www.w3.org/1999/xlink" x="0px" y="0px"
	 viewBox="0 0 700 250" style="enable-background:new 0 0 700 250;" xml:space="preserve">
<style type="text/css">
	.st0{opacity:0.4;}
	.st1{opacity:0.25;}
	.st2{fill:url(#SVGID_1_);}
	.st3{opacity:0.1;}
	.st4{fill:url(#SVGID_2_);}
	.st5{fill:url(#SVGID_3_);}
	.st6{opacity:5.000000e-02;}
	.st7{fill:url(#SVGID_4_);}
	.st8{opacity:0.2;fill:url(#SVGID_5_);}
	.st9{opacity:0.1;fill:none;stroke:#FFFFFF;stroke-width:3;enable-background:new    ;}
</style>
<g class="st0">
	<g class="st1">
		
			<linearGradient id="SVGID_1_" gradientUnits="userSpaceOnUse" x1="694.8951" y1="72.0887" x2="2.2692" y2="72.0887" gradientTransform="matrix(1 0 0 -1 0 251)">
			<stop  offset="0" style="stop-color:#000000"/>
			<stop  offset="1.000000e-04" style="stop-color:#E3E3E3"/>
			<stop  offset="1" style="stop-color:#FBFBFB"/>
		</linearGradient>
		<path class="st2" d="M2.3,216.3c30.6,0,30.6-1.2,64.7-7.5c66.4-12.3,122.5-32.1,187.2-49.4c61.3-17.3,125.9-38.4,192.3-45.7
			c68.1-8.7,199.1-12.3,248.5,30.9l-1.7,11.1c-27.2-12.3-88.5-3.7-119.1,0c-49.4,5-95.3,16.1-141.2,29.6
			c-78.3,23.5-154.9,40.8-231.4,64.3l-187.9-7L2.3,216.3z"/>
	</g>
	<g class="st3">
		
			<linearGradient id="SVGID_2_" gradientUnits="userSpaceOnUse" x1="696.0293" y1="120.5737" x2="1.818989e-12" y2="120.5737" gradientTransform="matrix(1 0 0 -1 0 251)">
			<stop  offset="0" style="stop-color:#000000"/>
			<stop  offset="1" style="stop-color:#121212"/>
		</linearGradient>
		<path class="st4" d="M0,169.7c8.5-5,27.2-6.2,39.1-8.7c56.2-9.8,108.9-27.2,158.3-47c85.1-34.6,156.6-85.3,257-94
			c105.5-9.8,192.3,13.6,241.7,81.6l-1.7,26c-57.9-50.7-171.9-66.8-246.8-27.2c-51.1,27.2-91.9,63-144.7,89
			c-66.4,30.9-137.8,43.3-212.7,53.2C59.6,246.4,31,219,2,223.9L0,169.7z"/>
	</g>
	<g class="st1">
		<linearGradient id="SVGID_3_" gradientUnits="userSpaceOnUse" x1="3.971" y1="106.248" x2="698.2987" y2="106.248">
			<stop  offset="0" style="stop-color:#000000"/>
			<stop  offset="1.000000e-04" style="stop-color:#E3E3E3"/>
			<stop  offset="1" style="stop-color:#FBFBFB"/>
		</linearGradient>
		<path class="st5" d="M4,123.6c10.2,6.2,35.7,7.5,52.8,7.5c59.6,1.2,120.8-6.2,178.7-14.8c68.1-8.7,132.7-29.6,202.5-23.5
			c59.6,5,115.7,17.3,165.1,40.8c27.2,14.8,73.2,35.9,90.2,58.2l5.1-22.3c-45.9-26-85.1-55.7-131-79.2
			C506,59.3,446.4,23.4,369.9,20.9C245.6,17.2,129.2,133.4,6.7,106.1L4,123.6z"/>
	</g>
	<g class="st6">
		
			<linearGradient id="SVGID_4_" gradientUnits="userSpaceOnUse" x1="695.2349" y1="159.0709" x2="0.5673" y2="159.0709" gradientTransform="matrix(1 0 0 -1 0 251)">
			<stop  offset="0" style="stop-color:#000000"/>
			<stop  offset="1" style="stop-color:#121212"/>
		</linearGradient>
		<path class="st7" d="M0.6,101.8C43.1,87,84,74.6,124.8,51.1C182.7,17.7,233.7,0.4,308.6,0.4C363,0.4,423,9.1,475.4,17.7
			c98,16,214.8,101.2,219.9,106.1V148c-47.6-27.3-230.1-106.9-289.6-95.7c-83.4,14.8-170.2,60.6-240,94
			c-34,17.3-73.2,34.6-117.4,37.1c-13.6,0-34-1.2-44.2-1.2L0.6,101.8z"/>
	</g>
	
		<linearGradient id="SVGID_5_" gradientUnits="userSpaceOnUse" x1="700" y1="96.3808" x2="3.517" y2="96.3808" gradientTransform="matrix(1 0 0 -1 0 251)">
		<stop  offset="0" style="stop-color:#000000"/>
		<stop  offset="1.000000e-04" style="stop-color:#E3E3E3"/>
		<stop  offset="1" style="stop-color:#FBFBFB"/>
	</linearGradient>
	<path class="st8" d="M700,132.2c-25.5-34.6-117.4-44.6-163.4-47c-76.6-5-146.4-1.2-209.3,29.6C243.9,156.9,152.1,225,43.2,217.7
		c-13.6-1.2-27.8-3.7-39.7-9.8l0.5,8.6c90.2,33.4,211-30.9,301.2-51.9c73.2-16.1,163.4-2.5,228,26c45.9,21,109.6,20.1,165.8,28.8
		L700,132.2z"/>
	<path class="st9" d="M696.8,223c-5.4-2.5-10.7-4.9-15.9-7 M699,234.5c-5.3-2.4-10.5-4.7-15.6-6.8 M681.1,159.7
		c-6.2-2.6-12.3-5-18.1-7.3 M684,169.6c-6-2.6-12-5.1-17.6-7.3 M664,104.4c-7.2-2.3-14.1-4.4-20.8-6.2 M666.8,113.2
		c-7-2.4-13.8-4.6-20.3-6.5 M695.1,183.6c-26.7-12.3-50-20.9-70.6-26.6 M700,204.6c-25.5-12.1-47.8-20.7-67.9-26.5 M697.7,194.1
		c-26.1-12.2-48.8-20.9-69.1-26.6 M679.5,125.6c-31-11.5-57.5-19.1-80.6-23.5 M684.7,144.2c-29.6-12-54.8-20.1-77-25 M690,163.5
		c-28.1-12.2-52.3-20.7-73.6-26.1 M610,135.9c-4.8-1-9.3-2-13.8-2.8 M682.1,134.9c-30.2-11.7-56.2-19.6-78.8-24.4 M687.4,153.7
		c-28.8-12.1-53.6-20.4-75.3-25.6 M692.6,173.4c-27.4-12.3-51.2-20.8-72.1-26.4 M614.3,145.4c-4.7-1.1-9.1-2.1-13.5-2.9
		 M674.2,107.7c-32.5-10.9-60.2-17.8-84.3-21.6 M582.8,85.1c-5.3-0.7-10.5-1.2-15.5-1.7 M671.7,99c-33.2-10.5-61.6-17.1-86.2-20.5
		 M676.9,116.6c-31.8-11.2-58.9-18.4-82.5-22.6 M587.4,92.9c-5.3-0.8-10.2-1.5-15.1-1.9 M625,157.2c-20.6-5.7-38.7-8.4-55.1-8.9
		 M632.5,178.2c-20.1-5.9-37.9-8.9-54.3-9.6 M628.8,167.4c-20.3-5.8-38.3-8.7-54.7-9.3 M599.2,102.3c-23.1-4.5-42.9-5.8-60.3-4.7
		 M608.2,119.3c-22.3-5-41.3-6.8-58.2-6.3 M616.9,137.6c-21.4-5.4-39.9-7.8-56.4-7.7 M555.5,129.9c-3.7,0.1-7.3,0.3-10.8,0.7
		 M603.7,110.6c-22.7-4.8-42.1-6.3-59.2-5.5 M612.6,128.2c-21.8-5.2-40.6-7.4-57.3-7 M620.9,147.2c-21-5.6-39.3-8.1-55.7-8.3
		 M560.3,138.8c-3.7,0.1-7.2,0.2-10.7,0.5 M581.7,71.1c-25.2-3.1-46.6-3.2-65.2-0.9 M590.4,86.3c-24.1-3.8-44.6-4.6-62.6-2.9
		 M522.5,84c-4,0.5-7.8,1-11.6,1.8 M577.6,63.8c-25.7-2.8-47.5-2.5-66.4,0 M586,78.6c-24.7-3.5-45.6-3.8-63.9-2 M594.9,94.1
		c-23.6-4.1-43.8-5.2-61.5-3.8 M528.2,90.8c-3.9,0.4-7.7,0.9-11.4,1.6 M570.3,148.2c-16.4-0.4-31.1,1.5-45,4.9 M578.6,168.6
		c-16.3-0.8-31.3,0.5-45.6,3.5 M574.5,158.2c-16.3-0.6-31.1,0.9-45.2,4.2 M539.3,97.6c-17.4,1-32.5,4.5-46.2,9.5 M550.3,113
		c-16.9,0.5-31.7,3.4-45.4,8 M560.7,129.8c-16.6,0-31.3,2.4-45,6.4 M511.6,137.5c-3.1,1-6.1,2.1-9.1,3.2 M544.9,105.1
		c-17.1,0.7-32.1,3.9-45.7,8.7 M555.6,121.2c-16.7,0.2-31.5,2.9-45.1,7.2 M565.6,138.8c-16.4-0.2-31.1,1.9-44.9,5.7 M516.5,145.6
		c-3.1,0.9-6.1,2-9.2,3 M506.1,57.6c-19.4,2.8-35.8,7.7-50.5,14.1 M517,70.1c-18.7,2.2-34.5,6.6-48.7,12.6 M528.2,83.4
		c-18,1.7-33.4,5.6-47.4,11.1 M476.7,96.1c-3.1,1.3-6.1,2.7-9.1,4.1 M511.4,63.8c-19,2.5-35.1,7.2-49.6,13.4 M522.5,76.6
		c-18.3,1.9-33.9,6.1-48,11.9 M533.8,90.3c-17.7,1.3-32.9,5.1-46.7,10.4 M482.9,102.3c-3.1,1.2-6.1,2.6-9,4 M439,62.9
		c-3.4,1.6-6.6,3.2-9.8,4.9 M445.1,68.2c-3.3,1.6-6.5,3.1-9.6,4.8 M525.5,153.1c-13.9,3.5-27.1,8.6-40.4,14.7 M533.3,172
		c-14.3,3-28,7.6-41.9,13.1 M529.6,162.2c-14.1,3.2-27.5,8.1-41,13.9 M493.4,107c-13.7,5-26.2,11.7-38.3,19.2 M505.2,120.9
		c-13.7,4.6-26.3,10.7-38.6,17.8 M516,136.1c-13.7,4-26.5,9.6-39.3,16.3 M472.8,154.5c-2.9,1.6-5.8,3.1-8.8,4.8 M499.5,113.8
		c-13.7,4.8-26.2,11.2-38.4,18.4 M510.8,128.3c-13.7,4.2-26.4,10.2-38.9,17.1 M521,144.4c-13.8,3.7-26.7,9.1-39.8,15.5 M477.2,161.8
		c-3,1.5-5.9,3-8.9,4.6 M456,71.4c-14.7,6.3-27.5,14-39.7,22.3 M468.5,82.5c-14.3,5.9-26.8,13.4-38.9,21.5 M481.1,94.3
		c-13.9,5.5-26.5,12.5-38.5,20.3 M439.1,117c-2.7,1.8-5.4,3.6-8.2,5.5 M462.2,76.9c-14.5,6.1-27.1,13.7-39.3,21.9 M474.9,88.3
		c-14.1,5.7-26.6,13-38.7,20.9 M487.3,100.6c-13.8,5.3-26.3,12.1-38.4,19.8 M445.4,122.6c-2.7,1.8-5.4,3.6-8.2,5.4 M443.8,60.8
		c-15.2,6.6-28.4,14.6-40.7,22.9 M399.4,86.3c-2.8,2-5.5,3.8-8.3,5.8 M449.8,66.1c-14.9,6.5-27.9,14.3-40.2,22.6 M406,91.2
		c-2.7,1.9-5.4,3.8-8.2,5.8 M369.1,60.5c-3,1.9-5.9,3.8-8.9,5.7 M485.4,167.7c-13.3,6.1-26.6,13.2-41.1,20.5 M491.8,184.9
		c-13.9,5.5-28,12-43.2,19 M445.1,223.2c-3.7,1.5-7.5,2.9-11.3,4.4 M488.9,176c-13.6,5.8-27.3,12.6-42.1,19.8 M444.5,232.6
		c-3.8,1.3-7.7,2.8-11.6,4.1 M455.3,126c-12.2,7.5-24.1,15.8-36.8,24.1 M466.8,138.5c-12.4,7-24.7,15-37.9,23.1 M477,152.3
		c-12.7,6.6-25.6,14.2-39.3,22 M433.4,176.6c-3.2,1.8-6.4,3.5-9.7,5.4 M461.3,132.1c-12.3,7.3-24.4,15.4-37.3,23.6 M472.1,145.2
		c-12.5,6.8-25.1,14.6-38.6,22.6 M481.4,159.7c-13,6.3-26.1,13.7-40.2,21.2 M437,183.4c-3.2,1.8-6.6,3.5-9.9,5.3 M416.5,93.6
		c-12.2,8.3-23.6,17.1-35.5,25.6 M429.8,103.8c-12.1,8.1-23.5,16.8-35.6,25.4 M442.9,114.6c-12.1,7.8-23.7,16.4-36.1,24.9
		 M403.1,141.9c-2.8,2-5.7,3.8-8.7,5.8 M423.2,98.6c-12.1,8.2-23.5,17-35.5,25.5 M436.5,109.1c-12.1,8-23.6,16.6-35.8,25.2
		 M449.2,120.2c-12.2,7.7-23.9,16.1-36.4,24.6 M409,147.2c-2.9,2-5.8,3.8-8.8,5.7 M378.8,63.2c-13.1,8.4-25.1,17-37.1,25.1
		 M390.6,73.5c-12.7,8.4-24.4,17.2-36.3,25.5 M403.3,83.6c-12.4,8.4-23.9,17.2-35.7,25.7 M364,111.8c-2.7,1.9-5.4,3.8-8.2,5.7
		 M384.6,68.4c-12.9,8.4-24.7,17.1-36.7,25.3 M396.9,78.6c-12.5,8.4-24.1,17.2-36,25.6 M409.9,88.5c-12.3,8.3-23.7,17.2-35.6,25.7
		 M370.7,116.8c-2.7,2-5.4,3.8-8.2,5.7 M373.2,57.8c-13.3,8.3-25.6,16.8-37.6,24.8 M332,84.9c-2.7,1.8-5.5,3.5-8.3,5.2 M444.6,188.1
		c-14.4,7.4-29.9,15-47.3,22.4 M448.9,203.7c-15.2,6.8-31.4,14.1-49.5,21.1 M450.4,221.2c-16,6.3-33.1,13-51.9,19.5 M392.6,242.7
		c-4.4,1.5-8.8,2.9-13.4,4.4 M447.1,195.7c-14.8,7.2-30.6,14.6-48.3,21.8 M450,212.2c-15.6,6.6-32.2,13.6-50.8,20.3 M449.9,230.7
		c-16.4,5.9-33.9,12.3-53.3,18.6 M418.9,149.9c-12.7,8.4-26.2,16.8-41.5,24.5 M429.3,161.5c-13.1,8.1-27.2,16.4-43.2,24
		 M437.9,174.2c-13.7,7.8-28.5,15.9-45.1,23.4 M387.7,199.8c-3.9,1.7-7.9,3.4-12,5 M424.2,155.6c-12.9,8.3-26.6,16.6-42.3,24.4
		 M433.8,167.6c-13.4,8-27.8,16.2-44.2,23.7 M441.5,180.9c-14.1,7.6-29.2,15.4-46.2,22.9 M390.3,206.1c-4,1.7-8.1,3.3-12.3,5
		 M381.2,119c-11.9,8.6-24.1,16.9-37.9,24.1 M394.4,129c-12.1,8.6-24.6,17-38.9,24.6 M407.1,139.2c-12.4,8.5-25.3,17-40.1,24.7
		 M362.5,166.1c-3.4,1.7-7,3.3-10.6,5 M387.9,124c-12,8.6-24.4,17-38.3,24.4 M400.9,134c-12.2,8.6-25,17-39.4,24.7 M413.1,144.5
		c-12.5,8.5-25.8,16.9-40.7,24.6 M367.8,171.4c-3.5,1.8-7.1,3.4-10.8,5 M341.9,88c-12,8.1-24,15.6-37.1,21.9 M354.6,98.9
		c-11.9,8.3-23.8,16.2-37,22.8 M367.8,109.1c-11.8,8.5-23.8,16.6-37.3,23.6 M326.5,134.8c-3.1,1.6-6.3,3-9.6,4.4 M348.2,93.5
		c-11.9,8.2-23.8,16-37,22.4 M361.2,104c-11.8,8.4-23.8,16.5-37.1,23.2 M374.5,114.1c-11.9,8.5-24,16.8-37.5,23.9 M332.9,140.2
		c-3.2,1.6-6.4,3.1-9.7,4.6 M335.9,82.4c-12.2,8-24.1,15.3-37.1,21.2 M294.8,105.4c-3,1.3-6,2.5-9.2,3.6 M397.7,210.3
		c-17.3,7.4-36.7,14.3-58.7,20.3 M399.7,224.6c-18.1,6.9-38.1,13.7-60.8,19.6 M399.1,217.3c-17.7,7.2-37.3,14.1-59.8,20
		 M377.6,174.3c-15.3,7.7-32.5,14.7-52.5,20.2 M386.4,185.4c-15.9,7.7-33.7,14.8-54.6,20.5 M393.2,197.4
		c-16.6,7.6-35.2,14.7-56.7,20.6 M330,219.7c-5.1,1.2-10.2,2.5-15.6,3.6 M382.2,179.7c-15.7,7.7-33.1,14.8-53.5,20.4 M390,191.3
		c-16.2,7.7-34.5,14.7-55.6,20.6 M395.7,203.7c-17,7.5-35.9,14.5-57.8,20.5 M331.4,225.9c-5.1,1.3-10.3,2.6-15.8,3.7 M343.6,143.1
		c-13.8,7.3-29.1,13.5-47,17.8 M355.9,153.4c-14.2,7.5-30,14.1-48.6,18.9 M367.3,163.7c-14.7,7.7-31.2,14.5-50.5,19.7 M311,184.9
		c-4.6,1.1-9.2,2.2-14,3 M349.8,148.2c-14,7.4-29.6,13.8-47.7,18.4 M361.8,158.5c-14.5,7.6-30.6,14.3-49.6,19.3 M372.7,169
		c-15,7.7-31.8,14.6-51.4,20 M315.2,190.5c-4.6,1.1-9.3,2.2-14.3,3.2 M305.2,109.8c-13,6.2-27,11.2-43.3,14 M317.9,121.5
		c-13.1,6.6-27.5,12-44.2,15.3 M330.8,132.6c-13.4,6.9-28.2,12.9-45.4,16.7 M280.1,150.3c-4.1,0.8-8.2,1.5-12.5,2.1 M311.5,115.8
		c-13,6.4-27.3,11.6-43.7,14.7 M324.3,127.1c-13.3,6.8-27.8,12.4-44.8,16.1 M337.3,137.9c-13.6,7.2-28.6,13.2-46.2,17.3
		 M285.7,156.3c-4.1,0.8-8.4,1.6-12.7,2.2 M298.9,103.6c-13,6-26.9,10.7-42.9,13.2 M339.4,230.5c-22.1,6-47.1,10.9-75.8,14.2
		 M325.6,194.5c-20,5.6-42.9,9.6-69.7,11.4 M332.2,205.9c-20.7,5.8-44.3,10.3-72,12.6 M337,217.8c-21.4,5.9-45.8,10.7-74,13.6
		 M254.4,232.2c-6.6,0.5-13.4,1-20.4,1.3 M329.1,200.1c-20.3,5.7-43.7,10-70.9,12 M334.8,211.8c-21.1,5.9-45.1,10.5-72.9,13.2
		 M338.4,224c-21.8,6-46.4,10.9-74.9,13.9 M255,238.8c-6.6,0.6-13.5,1.1-20.6,1.6 M297,160.9c-17.9,4.4-38.3,6.8-62.5,6.7
		 M307.7,172.2c-18.6,4.9-39.9,7.9-65,8.4 M317.2,183.3c-19.3,5.2-41.3,8.8-67.4,9.9 M242,193.5c-6.1,0.1-12.4,0.2-19,0.1
		 M302.4,166.6c-18.2,4.6-39.1,7.4-63.7,7.6 M312.6,177.7c-18.9,5.1-40.6,8.4-66.1,9.2 M321.6,188.9c-19.6,5.4-42.1,9.2-68.6,10.7
		 M245,200c-6.2,0.2-12.6,0.3-19.3,0.3 M262.2,123.7c-16.1,2.8-34.4,3.5-55.8,1.3 M274,136.8c-16.6,3.3-35.6,4.7-58,3.1
		 M285.7,149.2c-17.2,3.9-36.9,5.8-60.2,5 M218.5,153.7c-5.4-0.3-11.1-0.8-16.9-1.5 M268.1,130.4c-16.3,3.1-35,4.1-56.9,2.3
		 M279.9,143.1c-16.9,3.6-36.2,5.3-59,4 M291.5,155.1c-17.5,4.1-37.6,6.3-61.4,5.8 M222.9,160.7c-5.5-0.2-11.4-0.6-17.3-1.1
		 M264.3,244.6c-28.6,3.3-61,4.9-98,4.1 M256.3,205.8c-26.7,1.9-57.5,1.5-93.3-2.1 M260.8,218.4c-27.5,2.4-58.9,2.7-95.4,0.2
		 M263.5,231.3c-28.1,2.9-60.2,3.8-97.1,2.3 M155.3,233c-8.7-0.5-17.5-1.1-26.6-1.9 M258.8,212.1c-27.1,2.1-58.3,2.1-94.3-0.9
		 M262.4,224.8c-27.8,2.7-59.6,3.3-96.3,1.2 M264.2,237.9c-28.4,3.1-60.6,4.4-97.6,3.2 M155.3,240.7c-8.7-0.4-17.5-0.9-26.6-1.6
		 M235,167.6c-24.1-0.1-52-3-84.7-9.3 M243.2,180.6c-25.1,0.5-54-1.5-87.8-6.8 M250.4,193.2c-26,1.2-55.8,0-90.6-4.5 M149.2,187.4
		c-8.2-1.1-16.6-2.5-25.3-3.9 M239.2,174.2c-24.6,0.2-53-2.2-86.3-8.1 M246.9,186.9c-25.5,0.8-54.9-0.7-89.3-5.6 M253.5,199.5
		c-26.4,1.6-56.7,0.7-92-3.2 M150.8,195c-8.3-1-16.8-2.3-25.6-3.6 M216.6,140.1c-22.3-1.5-47.9-5.8-78.1-13.9 M226,154.1
		c-23.2-0.8-50-4.5-81.4-11.6 M221.3,147.2c-22.8-1.1-48.9-5.2-79.7-12.7 M230.6,160.9c-23.6-0.5-51-3.7-83.1-10.5 M167,248.7
		c-37-0.7-78.6-3.8-125.8-10 M163.9,203.8c-35.7-3.4-76.3-9.8-123-20.1 M166.2,218.7c-36.4-2.5-77.6-7.8-124.9-16.7 M167.3,233.6
		c-36.8-1.6-78.4-5.7-125.8-13.3 M165.2,211.3c-36-2.9-77-8.8-124-18.3 M166.9,226.2c-36.6-2-78.1-6.7-125.5-14.9 M167.4,241.1
		c-37-1.1-78.6-4.8-125.9-11.6 M151,158.4c-32.7-6.2-70.1-16.1-113.5-30.2 M156.1,173.8c-33.7-5.4-72.5-14.1-117.2-26.9
		 M160.5,188.9c-34.8-4.4-74.6-11.9-120.4-23.5 M153.7,166.2c-33.2-5.8-71.3-15.1-115.3-28.6 M158.4,181.4
		c-34.3-4.9-73.6-13.1-118.9-25.3 M162.3,196.3c-35.3-3.8-75.5-10.9-121.9-21.9"/>
</g>
</svg>
