<?xml version="1.0" encoding="utf-8"?>
<!-- Generator: Adobe Illustrator 23.1.0, SVG Export Plug-In . SVG Version: 6.00 Build 0)  -->
<svg version="1.1" id="Capa_1" xmlns="http://www.w3.org/2000/svg" xmlns:xlink="http://www.w3.org/1999/xlink" x="0px" y="0px"
	 viewBox="0 0 256 256" style="enable-background:new 0 0 256 256;" xml:space="preserve">
<style type="text/css">
	.st0{fill:#FF5336;}
</style>
<g>
	<path class="st0" d="M54.8,108l-24.6,65.5v0c6,24,19.2,45.2,37.9,61.2L99,223.2C66.3,193.9,50.1,150.7,54.8,108z"/>
	<path class="st0" d="M22,195.7L3.1,245.9c-2.2,6,3.6,11.9,9.7,9.7l39.7-14.9C39.2,227.7,28.9,212.3,22,195.7L22,195.7z"/>
	<path class="st0" d="M107.5,101.9l-28-28c-22.7,51.2-7.2,109.7,35.6,143.3l29.9-11.2C118.8,178.8,104.6,141,107.5,101.9
		L107.5,101.9z"/>
	<path class="st0" d="M122.1,116.5c1.1,31.8,15,61.9,38.5,83.6h0l21.9-8.2c5.1-1.9,6.5-8.5,2.7-12.3L122.1,116.5z"/>
	<g>
		<path class="st0" d="M176.9,140.1c2.9,2.9,7.7,2.9,10.6,0c28.2-28.2,55.7-19.5,56-19.4c3.9,1.3,8.2-0.8,9.5-4.7
			c1.3-3.9-0.8-8.2-4.7-9.5c-1.5-0.5-36.6-11.7-71.3,23C174,132.4,174,137.1,176.9,140.1z"/>
	</g>
	<path class="st0" d="M129.2,81.7c34.7-34.7,23.5-69.8,23-71.3c-1.3-3.9-5.6-6-9.5-4.7c-3.9,1.3-6,5.6-4.7,9.5
		c0.1,0.3,8.8,27.7-19.4,56c-2.9,2.9-2.9,7.7,0,10.6C121.5,84.7,126.3,84.7,129.2,81.7L129.2,81.7z"/>
	<path class="st0" d="M145.1,97.7c-2.9,2.9-2.9,7.7,0,10.6c2.9,2.9,7.6,2.9,10.6,0c3.9-1.9,15.9,5.3,22.6-1.4
		c6.6-6.6-0.4-18.4,1.3-22.5c4.1-1.8,15.9,5.3,22.5-1.3c6.6-6.6-0.4-18.4,1.3-22.5c4.1-1.8,15.9,5.3,22.5-1.3
		c6.6-6.6-0.4-18.4,1.3-22.5c4.1-1.8,15.9,5.3,22.5-1.3c6.7-6.7-0.5-18.7,1.4-22.6c2.9-2.9,2.9-7.6,0-10.6c-2.9-2.9-7.7-2.9-10.6,0
		c-5.9,5.9-4.8,14.3-3.6,20.2c-6-1.1-14.3-2.3-20.2,3.6c-5.9,5.9-4.8,14.3-3.6,20.2c-6-1.1-14.3-2.3-20.2,3.6
		c-5.9,5.9-4.8,14.3-3.6,20.2c-6-1.1-14.3-2.3-20.2,3.6c-5.9,5.9-4.8,14.3-3.6,20.2C159.3,92.9,151,91.7,145.1,97.7L145.1,97.7z"/>
	<path class="st0" d="M187.5,34c2.9-2.9,2.9-7.7,0-10.6s-7.7-2.9-10.6,0s-2.9,7.7,0,10.6S184.6,36.9,187.5,34z"/>
	<circle class="st0" cx="235.2" cy="81.7" r="7.5"/>
	<path class="st0" d="M219.3,150.7c-2.9,2.9-2.9,7.7,0,10.6c2.9,2.9,7.7,2.9,10.6,0s2.9-7.7,0-10.6
		C227,147.8,222.3,147.8,219.3,150.7z"/>
	<path class="st0" d="M113.3,44.6c2.9-2.9,2.9-7.7,0-10.6s-7.7-2.9-10.6,0c-2.9,2.9-2.9,7.7,0,10.6
		C105.6,47.5,110.3,47.5,113.3,44.6z"/>
</g>
</svg>
