<?xml version="1.0" encoding="utf-8"?>
<!-- Generator: Adobe Illustrator 23.1.0, SVG Export Plug-In . SVG Version: 6.00 Build 0)  -->
<svg version="1.1" id="Capa_1" xmlns="http://www.w3.org/2000/svg" xmlns:xlink="http://www.w3.org/1999/xlink" x="0px" y="0px"
	 viewBox="0 0 512 512" style="enable-background:new 0 0 512 512;" xml:space="preserve">
<style type="text/css">
	.st0{fill:#FF5336;}
</style>
<path class="st0" d="M256,95.2c8.3,0,15-6.7,15-15V30.7c0-8.3-6.7-15-15-15s-15,6.7-15,15v49.5C241,88.5,247.7,95.2,256,95.2z"/>
<path class="st0" d="M326,120.7c3.8,0,7.7-1.5,10.6-4.4l40-40c5.9-5.9,5.9-15.4,0-21.2c-5.9-5.9-15.4-5.9-21.2,0l-40,40
	c-5.9,5.9-5.9,15.4,0,21.2C318.3,119.2,322.2,120.7,326,120.7L326,120.7z"/>
<path class="st0" d="M175.4,116.3c2.9,2.9,6.8,4.4,10.6,4.4s7.7-1.5,10.6-4.4c5.9-5.9,5.9-15.4,0-21.2l-40-40
	c-5.9-5.9-15.4-5.9-21.2,0s-5.9,15.4,0,21.2L175.4,116.3z"/>
<path class="st0" d="M390.7,227.7l-58.2-58.2c-11.3-11.3-26.5-17.6-42.4-17.6H199c-22.7,0-44.1,8.8-60.1,24.9l-4.8,4.8l-0.3,0.3H15
	c-8.3,0-15,6.7-15,15v160c0,8.3,6.7,15,15,15h74.8l35.6,35.6c2.8,2.8,6.6,4.4,10.6,4.4h13.6c-5-7.8-8.3-16.5-9.5-25.6
	c-11.2-3.6-21.3-10.4-29.1-19.6c-22.6-26.9-19.1-67.2,7.9-89.8l57-47.8h113.8c4,0,7.8,1.6,10.6,4.4l41.9,41.9
	c13.5,13.5,35.8,13.7,49,0.1C404,262.1,403.8,240.8,390.7,227.7L390.7,227.7z"/>
<path class="st0" d="M512,227.9c0-8.3-6.7-15-15-15h-79.5c19.2,25.1,17.3,61.2-5.6,84.1c-12.1,12.1-28.2,18.7-45.3,18.7
	c-17.1,0-33.2-6.7-45.3-18.7l-38-38H184l-11.8,9.9l-38.1,31.9c-14.3,12-16.1,33.3-4.2,47.5s33.3,16.1,47.5,4.2
	c-14.3,12-16.1,33.3-4.2,47.5s33.3,16.1,47.5,4.2c-14.3,12-16.1,33.3-4.2,47.5S250,468,264.3,456l26.6-22.3l-3.6,3
	c-14.3,12-16.1,33.3-4.2,47.5s33.3,16.1,47.5,4.2l101.9-85.5H497c8.3,0,15-6.7,15-15L512,227.9z"/>
</svg>
