<?xml version="1.0" encoding="utf-8"?>
<!-- Generator: Adobe Illustrator 23.1.0, SVG Export Plug-In . SVG Version: 6.00 Build 0)  -->
<svg version="1.1" id="Layer_1" xmlns="http://www.w3.org/2000/svg" xmlns:xlink="http://www.w3.org/1999/xlink" x="0px" y="0px"
	 viewBox="0 0 166 40" style="enable-background:new 0 0 166 40;" xml:space="preserve">
<style type="text/css">
	.st0{fill:#353FE8;}
</style>
<g id="Logo">
	<g id="Group">
		<path id="Vector" class="st0" d="M15.3,33H5.9c-3.2,0-5.9,2.6-5.9,5.9c0,0.6,0.5,1.2,1.2,1.2H20c0.6,0,1.2-0.5,1.2-1.2
			C21.2,35.6,18.5,33,15.3,33z"/>
		<path id="Vector_2" class="st0" d="M23.7,18.7l-5.2,5.2c4.7,5.1,8.1,8.4,9.6,10.3l6.2-6.2C32.4,26.5,28.7,23.4,23.7,18.7z"/>
		<path id="Vector_3" class="st0" d="M27.8,6.3L27.8,6.3l-5-5.1c-1.7-1.7-4.6-1.8-6.5,0.2C15.7,2,15.5,2.7,15,3.5l10.6,10.6
			c0.8-0.4,1.4-0.7,2.1-1.2C29.5,11.1,29.6,8.2,27.8,6.3z"/>
		<path id="Vector_4" class="st0" d="M3.5,15.2c-0.8,0.4-1.4,0.7-2,1.3c-1.7,1.6-2,4.5-0.2,6.4l5,5c1.8,1.8,4.7,1.5,6.4-0.2
			c0.6-0.6,0.9-1.2,1.3-2C13.7,25.4,4.1,15.8,3.5,15.2z"/>
		<path id="Vector_5" class="st0" d="M13.8,5.5l-8.3,8.3l9.9,9.9c7.5-7.5,6-6,8.3-8.3L13.8,5.5z"/>
		<path id="Vector_6" class="st0" d="M39.9,33.4c-0.4-1.9-1.8-3.4-3.6-4.1l-6.9,6.9c0.7,1.8,2.2,3.2,4.1,3.6c2,0.4,3.7-0.1,5-1.4
			C39.8,37.1,40.4,35.3,39.9,33.4z"/>
	</g>
	<g id="Group_2">
		<path id="Vector_7" d="M59.7,22.9c0.7,1,1.1,2,1.1,3.3c0,1.8-0.6,3.2-1.8,4.2c-1.2,1-2.9,1.5-5.1,1.5H44v-21h9.5
			c2.1,0,3.8,0.5,5,1.5c1.2,1,1.8,2.3,1.8,4c0,1.2-0.3,2.3-1,3.1c-0.7,0.8-1.5,1.4-2.6,1.7C58,21.4,58.9,22,59.7,22.9z M49.1,19.4
			h3.4c0.8,0,1.5-0.2,1.9-0.6c0.5-0.4,0.7-0.9,0.7-1.6c0-0.7-0.2-1.3-0.7-1.7c-0.5-0.4-1.1-0.6-1.9-0.6h-3.4V19.4z M54.9,27.2
			c0.5-0.4,0.7-1,0.7-1.7c0-0.7-0.2-1.3-0.7-1.7c-0.5-0.4-1.2-0.6-2-0.6h-3.7v4.7h3.8C53.8,27.8,54.4,27.6,54.9,27.2z"/>
		<path id="Vector_8" d="M64.1,12.6c-0.6-0.5-0.9-1.2-0.9-2c0-0.8,0.3-1.5,0.9-2c0.6-0.5,1.3-0.8,2.2-0.8c0.9,0,1.6,0.3,2.2,0.8
			c0.6,0.5,0.9,1.2,0.9,2c0,0.8-0.3,1.4-0.9,2c-0.6,0.5-1.3,0.8-2.2,0.8C65.4,13.4,64.7,13.2,64.1,12.6z M68.9,15.2v16.7h-5.1V15.2
			H68.9z"/>
		<path id="Vector_9" d="M72.6,19c0.6-1.3,1.5-2.3,2.7-3c1.1-0.7,2.4-1.1,3.8-1.1c1.1,0,2.1,0.2,3,0.7c0.9,0.5,1.6,1.1,2.1,1.9V9.7
			h5.1v22.2h-5.1v-2.4c-0.5,0.8-1.2,1.4-2.1,1.9c-0.9,0.5-1.9,0.7-3.1,0.7c-1.4,0-2.6-0.4-3.8-1.1c-1.1-0.7-2-1.7-2.7-3
			c-0.7-1.3-1-2.8-1-4.5C71.6,21.8,71.9,20.3,72.6,19z M83.1,20.5c-0.7-0.7-1.6-1.1-2.6-1.1c-1,0-1.9,0.4-2.6,1.1
			c-0.7,0.7-1.1,1.7-1.1,3s0.4,2.3,1.1,3c0.7,0.8,1.6,1.1,2.6,1.1c1,0,1.9-0.4,2.6-1.1c0.7-0.7,1.1-1.8,1.1-3
			C84.1,22.2,83.8,21.2,83.1,20.5z"/>
		<path id="Vector_10" d="M98.4,27.7h9.1v4.2H92.6V28l9-13h-9v-4.2h14.9v3.9L98.4,27.7z"/>
		<path id="Vector_11" d="M114,31.1c-1.3-0.7-2.3-1.7-3.1-3c-0.8-1.3-1.1-2.8-1.1-4.6c0-1.7,0.4-3.2,1.1-4.5s1.8-2.3,3.1-3
			c1.3-0.7,2.8-1.1,4.4-1.1s3.1,0.4,4.4,1.1c1.3,0.7,2.4,1.7,3.1,3c0.8,1.3,1.1,2.8,1.1,4.5c0,1.7-0.4,3.2-1.2,4.5
			c-0.8,1.3-1.8,2.3-3.2,3c-1.3,0.7-2.8,1.1-4.5,1.1C116.8,32.1,115.3,31.8,114,31.1z M121,26.6c0.7-0.7,1-1.7,1-3.1
			c0-1.3-0.3-2.4-1-3.1c-0.7-0.7-1.5-1.1-2.5-1.1c-1,0-1.8,0.4-2.5,1.1c-0.7,0.7-1,1.7-1,3.1c0,1.3,0.3,2.4,1,3.1
			c0.6,0.7,1.5,1.1,2.4,1.1C119.4,27.7,120.3,27.3,121,26.6z"/>
		<path id="Vector_12" d="M144.8,16.9c1.2,1.3,1.8,3,1.8,5.2v9.8h-5.1v-9.1c0-1.1-0.3-2-0.9-2.6c-0.6-0.6-1.4-0.9-2.3-0.9
			c-1,0-1.8,0.3-2.3,0.9c-0.6,0.6-0.9,1.5-0.9,2.6v9.1H130V15.1h5.1v2.2c0.5-0.7,1.2-1.3,2.1-1.8c0.9-0.4,1.9-0.6,3-0.6
			C142.1,15,143.7,15.6,144.8,16.9z"/>
		<path id="Vector_13" d="M165.9,24.8h-11.6c0.1,1,0.4,1.8,1,2.4c0.6,0.6,1.3,0.8,2.2,0.8c1.3,0,2.2-0.5,2.7-1.6h5.5
			c-0.3,1.1-0.8,2.1-1.5,3c-0.7,0.9-1.6,1.6-2.7,2.1c-1.1,0.5-2.3,0.8-3.7,0.8c-1.6,0-3.1-0.3-4.4-1.1c-1.3-0.7-2.3-1.7-3-3
			s-1.1-2.8-1.1-4.6c0-1.7,0.4-3.3,1.1-4.6c0.7-1.3,1.7-2.3,3-3c1.3-0.7,2.7-1.1,4.4-1.1c1.6,0,3.1,0.3,4.3,1c1.3,0.7,2.2,1.7,3,2.9
			c0.7,1.3,1.1,2.7,1.1,4.4C165.9,23.7,165.9,24.2,165.9,24.8z M160.7,21.9c0-0.9-0.3-1.6-0.9-2.1c-0.6-0.5-1.4-0.8-2.3-0.8
			c-0.9,0-1.6,0.3-2.2,0.8c-0.6,0.5-1,1.2-1.1,2.1H160.7z"/>
	</g>
</g>
</svg>
