<?xml version="1.0" encoding="utf-8"?>
<!-- Generator: Adobe Illustrator 23.1.0, SVG Export Plug-In . SVG Version: 6.00 Build 0)  -->
<svg version="1.1" id="Layer_1" xmlns="http://www.w3.org/2000/svg" xmlns:xlink="http://www.w3.org/1999/xlink" x="0px" y="0px"
	 viewBox="0 0 1960 980" style="enable-background:new 0 0 1960 980;" xml:space="preserve">
<style type="text/css">
	.st0{opacity:5.000000e-02;}
	.st1{fill:#EFF1F4;}
	.st2{fill:#2550D1;}
</style>
<g class="st0">
	<path class="st1" d="M1796.9,653.3c0-90.2,73-163.3,163.1-163.3h-163.1V653.3z"/>
	<path class="st1" d="M1796.9,326.7H1960V490h-163.1V326.7z M1796.9,163.3v163.3H1960V163.3H1796.9z M1470.6,490v163.3h163.1
		C1543.6,653.3,1470.6,580.2,1470.6,490z"/>
	<path class="st1" d="M1796.8,653.3V490h-163.1C1633.7,580.2,1706.7,653.3,1796.8,653.3z"/>
	<path class="st1" d="M1633.7,326.7V490h163.1C1706.7,490,1633.7,416.9,1633.7,326.7z"/>
	<path class="st1" d="M1389,571.7c45,0,81.6-36.7,81.6-81.7h-163l0,0C1307.6,535.1,1344,571.7,1389,571.7z"/>
	<path class="st2" d="M1796.9,0v163.3H1960C1869.9,163.3,1796.9,90.2,1796.9,0z"/>
	<path class="st1" d="M1796.9,0c0,90.2,73,163.3,163.1,163.3V0H1796.9z"/>
	<path class="st1" d="M1225.9,408.3c0-45,36.3-81.4,81.4-81.5l0,0h-163V490h163.1l0,0C1262.4,489.9,1225.9,453.3,1225.9,408.3z"/>
	<path class="st2" d="M1796.8,326.7V490c-90.1,0-163.1-73.1-163.1-163.3H1796.8z M1470.6,326.5L1470.6,326.5
		c0.1-45,36.7-81.5,81.6-81.5c45,0,81.3,36.5,81.4,81.5l0,0V163.3h-163.1L1470.6,326.5L1470.6,326.5z"/>
	<path class="st1" d="M1470.6,326.7h163.1c0-0.1,0-0.1,0-0.2h-163.1C1470.6,326.6,1470.6,326.7,1470.6,326.7z"/>
	<path class="st1" d="M1552.3,245c-45,0-81.5,36.5-81.6,81.5h163.1C1633.6,281.5,1597.2,245,1552.3,245z"/>
	<path class="st1" d="M1633.7,816.5V653.3h-163.1C1470.6,743.6,1543.6,816.7,1633.7,816.5z"/>
	<path class="st1" d="M1307.6,653.3v158.1c2.8-42.6,38.2-76.4,81.4-76.4c45,0,81.5,36.5,81.6,81.5l0,0V653.3H1307.6z"/>
	<path class="st1" d="M1307.6,811.4c-0.1,1.8-0.2,3.6-0.2,5.4l0,0h0.2h163.1c0-0.1,0-0.1,0-0.2h-163.1V811.4z"/>
	<path class="st1" d="M1389,735c-43.2,0-78.7,33.8-81.4,76.4v5.2h163.1C1470.5,771.5,1434,735,1389,735z"/>
	<path class="st1" d="M1796.8,653.3h-163.1V980H1960c-90,0-163.1-73.1-163.1-163.3s73-163.5,163.1-163.5L1796.8,653.3L1796.8,653.3
		L1796.8,653.3z"/>
	<path class="st2" d="M1470.6,490h163.1v163.3C1543.6,653.3,1470.6,580.2,1470.6,490z M1389,571.7c-45,0-81.4-36.7-81.4-81.7v163.3
		h163.1V490C1470.6,535.1,1434,571.7,1389,571.7z M1225.9,408.3c0,45,36.5,81.6,81.4,81.7V326.7
		C1262.2,326.8,1225.9,363.3,1225.9,408.3z M1796.9,653.3H1960V490C1869.9,490,1796.9,563.1,1796.9,653.3z M1633.7,490v163.3h163.1
		C1706.7,653.3,1633.7,580.2,1633.7,490z M1796.9,816.7c0,90.2,73,163.3,163.1,163.3V653.3C1870,653.3,1796.9,726.6,1796.9,816.7z"
		/>
	<path class="st1" d="M1552.3,898.3c-45,0-81.6,36.7-81.6,81.7h163.1C1633.7,934.9,1597.3,898.3,1552.3,898.3z"/>
	<path class="st2" d="M1633.7,816.7h-163.1V653.5C1470.6,743.8,1543.6,816.9,1633.7,816.7z M1307.6,816.7
		c90,0,163.1,73.1,163.1,163.3c0-45.1,36.6-81.7,81.6-81.7s81.4,36.7,81.4,81.7V816.7h-163.1H1307.6z"/>
	<path class="st1" d="M1307.6,816.7V980h163.1C1470.6,889.8,1397.6,816.7,1307.6,816.7z"/>
	<path class="st1" d="M1144.3,816.7V980h163.1C1217.3,980,1144.3,906.9,1144.3,816.7z"/>
	<path class="st1" d="M1144.3,816.7c0,90.2,73,163.3,163.1,163.3V816.7l0,0H1144.3z"/>
	<path class="st1" d="M1062.9,898.3c0,45.3-36.6,81.7-81.6,81.7h163.1V816.7H986.6C1029.1,819.5,1062.9,855,1062.9,898.3z"/>
	<path class="st1" d="M981.3,816.5v0.2h5.4C984.8,816.6,983.1,816.5,981.3,816.5z"/>
	<path class="st1" d="M1062.9,898.3c0-43.3-33.7-78.8-76.3-81.5h-5.4V980C1026.3,980,1062.9,943.5,1062.9,898.3z"/>
</g>
<g class="st0">
	<path class="st1" d="M163.1,326.7C163.1,416.9,90.1,490,0,490h163.1V326.7z"/>
	<path class="st1" d="M163.1,653.3H0V490h163.1V653.3z M163.1,816.7V653.4H0v163.3H163.1z M489.4,490V326.7H326.3
		C416.4,326.7,489.4,399.8,489.4,490z"/>
	<path class="st1" d="M163.2,326.7V490h163.1C326.3,399.8,253.3,326.7,163.2,326.7z"/>
	<path class="st1" d="M326.3,653.3V490H163.2C253.3,490,326.3,563.1,326.3,653.3z"/>
	<path class="st1" d="M571,408.3c-45,0-81.6,36.7-81.6,81.7h163l0,0C652.4,444.9,616,408.3,571,408.3z"/>
	<path class="st2" d="M163.1,980V816.7H0C90.1,816.7,163.1,889.8,163.1,980z"/>
	<path class="st1" d="M163.1,980c0-90.2-73-163.3-163.1-163.3V980H163.1z"/>
	<path class="st1" d="M734.1,571.7c0,45-36.3,81.4-81.4,81.5l0,0h163V490H652.6l0,0C697.6,490.1,734.1,526.7,734.1,571.7z"/>
	<path class="st2" d="M163.2,653.3V490c90.1,0,163.1,73.1,163.1,163.3H163.2z M489.4,653.5L489.4,653.5c-0.1,45-36.7,81.5-81.6,81.5
		c-45,0-81.3-36.5-81.4-81.5l0,0v163.2h163.1L489.4,653.5L489.4,653.5z"/>
	<path class="st1" d="M489.4,653.3H326.3c0,0.1,0,0.1,0,0.2h163.1C489.4,653.4,489.4,653.3,489.4,653.3z"/>
	<path class="st1" d="M407.7,735c45,0,81.5-36.5,81.6-81.5H326.2C326.4,698.5,362.8,735,407.7,735z"/>
	<path class="st1" d="M326.3,163.5v163.2h163.1C489.4,236.4,416.4,163.3,326.3,163.5z"/>
	<path class="st1" d="M652.4,326.7V168.6c-2.8,42.6-38.2,76.4-81.4,76.4c-45,0-81.5-36.5-81.6-81.5l0,0v163.2H652.4z"/>
	<path class="st1" d="M652.4,168.6c0.1-1.8,0.2-3.6,0.2-5.4l0,0h-0.2H489.3c0,0.1,0,0.1,0,0.2h163.1V168.6z"/>
	<path class="st1" d="M571,245c43.2,0,78.7-33.8,81.4-76.4v-5.2H489.3C489.5,208.5,526,245,571,245z"/>
	<path class="st1" d="M163.2,326.7h163.1V0H0c90,0,163.1,73.1,163.1,163.3S90.1,326.8,0,326.8L163.2,326.7L163.2,326.7L163.2,326.7z
		"/>
	<path class="st2" d="M489.4,490H326.3V326.7C416.4,326.7,489.4,399.8,489.4,490z M571,408.3c45,0,81.4,36.7,81.4,81.7V326.7H489.3
		V490C489.4,444.9,526,408.3,571,408.3z M734.1,571.7c0-45-36.5-81.6-81.4-81.7v163.3C697.8,653.2,734.1,616.7,734.1,571.7z
		 M163.1,326.7H0V490C90.1,490,163.1,416.9,163.1,326.7z M326.3,490V326.7H163.2C253.3,326.7,326.3,399.8,326.3,490z M163.1,163.3
		C163.1,73.1,90.1,0,0,0v326.7C90,326.7,163.1,253.4,163.1,163.3z"/>
	<path class="st1" d="M407.7,81.7c45,0,81.6-36.7,81.6-81.7H326.2C326.3,45.1,362.7,81.7,407.7,81.7z"/>
	<path class="st2" d="M326.3,163.3h163.1v163.2C489.4,236.2,416.4,163.1,326.3,163.3z M652.4,163.3c-90,0-163.1-73.1-163.1-163.3
		c0,45.1-36.6,81.7-81.6,81.7S326.3,45,326.3,0v163.3h163.1H652.4z"/>
	<path class="st1" d="M652.4,163.3V0H489.3C489.4,90.2,562.4,163.3,652.4,163.3z"/>
	<path class="st1" d="M815.7,163.3V0H652.6C742.7,0,815.7,73.1,815.7,163.3z"/>
	<path class="st1" d="M815.7,163.3C815.7,73.1,742.7,0,652.6,0v163.3l0,0H815.7z"/>
	<path class="st1" d="M897.1,81.7c0-45.3,36.6-81.7,81.6-81.7H815.6v163.3h157.8C930.9,160.5,897.1,125,897.1,81.7z"/>
	<path class="st1" d="M978.7,163.5v-0.2h-5.4C975.2,163.4,976.9,163.5,978.7,163.5z"/>
	<path class="st1" d="M897.1,81.7c0,43.3,33.7,78.8,76.3,81.5h5.4V0C933.7,0,897.1,36.5,897.1,81.7z"/>
</g>
</svg>
